<svg version="1.2" baseProfile="tiny-ps" xmlns="http://www.w3.org/2000/svg" viewBox="0 0 900 178" width="900" height="178">
	<title>layered-waves-svg</title>
	<style>
		tspan { white-space:pre }
		.shp0 { fill: #ffffff } 
		.shp1 { fill: #bbbcbe } 
		.shp2 { fill: #7b7d81 } 
		.shp3 { fill: #414449 } 
		.shp4 { fill: #0d1117 } 
	</style>
	<path id="Layer" class="shp0" d="M0 22L18.8 25.3C37.7 28.7 75.3 35.3 112.8 31.2C150.3 27 187.7 12 225.2 11.2C262.7 10.3 300.3 23.7 337.8 22.2C375.3 20.7 412.7 4.3 450.2 1.3C487.7 -1.7 525.3 8.7 562.8 11.2C600.3 13.7 637.7 8.3 675.2 10.7C712.7 13 750.3 23 787.8 26.7C825.3 30.3 862.7 27.7 881.3 26.3L900 25L900 179L881.3 179C862.7 179 825.3 179 787.8 179C750.3 179 712.7 179 675.2 179C637.7 179 600.3 179 562.8 179C525.3 179 487.7 179 450.2 179C412.7 179 375.3 179 337.8 179C300.3 179 262.7 179 225.2 179C187.7 179 150.3 179 112.8 179C75.3 179 37.7 179 18.8 179L0 179L0 22Z" />
	<path id="Layer" class="shp1" d="M0 42L18.8 43.7C37.7 45.3 75.3 48.7 112.8 48.5C150.3 48.3 187.7 44.7 225.2 42.3C262.7 40 300.3 39 337.8 44C375.3 49 412.7 60 450.2 58.8C487.7 57.7 525.3 44.3 562.8 42.3C600.3 40.3 637.7 49.7 675.2 50.3C712.7 51 750.3 43 787.8 43.8C825.3 44.7 862.7 54.3 881.3 59.2L900 64L900 179L881.3 179C862.7 179 825.3 179 787.8 179C750.3 179 712.7 179 675.2 179C637.7 179 600.3 179 562.8 179C525.3 179 487.7 179 450.2 179C412.7 179 375.3 179 337.8 179C300.3 179 262.7 179 225.2 179C187.7 179 150.3 179 112.8 179C75.3 179 37.7 179 18.8 179L0 179L0 42Z" />
	<path id="Layer" class="shp2" d="M0 100L18.8 93.3C37.7 86.7 75.3 73.3 112.8 72C150.3 70.7 187.7 81.3 225.2 85.2C262.7 89 300.3 86 337.8 80.2C375.3 74.3 412.7 65.7 450.2 67.5C487.7 69.3 525.3 81.7 562.8 82.7C600.3 83.7 637.7 73.3 675.2 67.2C712.7 61 750.3 59 787.8 58.5C825.3 58 862.7 59 881.3 59.5L900 60L900 179L881.3 179C862.7 179 825.3 179 787.8 179C750.3 179 712.7 179 675.2 179C637.7 179 600.3 179 562.8 179C525.3 179 487.7 179 450.2 179C412.7 179 375.3 179 337.8 179C300.3 179 262.7 179 225.2 179C187.7 179 150.3 179 112.8 179C75.3 179 37.7 179 18.8 179L0 179L0 100Z" />
	<path id="Layer" class="shp3" d="M0 87L18.8 93.3C37.7 99.7 75.3 112.3 112.8 115.3C150.3 118.3 187.7 111.7 225.2 108.7C262.7 105.7 300.3 106.3 337.8 105.5C375.3 104.7 412.7 102.3 450.2 100C487.7 97.7 525.3 95.3 562.8 97C600.3 98.7 637.7 104.3 675.2 107.2C712.7 110 750.3 110 787.8 111.3C825.3 112.7 862.7 115.3 881.3 116.7L900 118L900 179L881.3 179C862.7 179 825.3 179 787.8 179C750.3 179 712.7 179 675.2 179C637.7 179 600.3 179 562.8 179C525.3 179 487.7 179 450.2 179C412.7 179 375.3 179 337.8 179C300.3 179 262.7 179 225.2 179C187.7 179 150.3 179 112.8 179C75.3 179 37.7 179 18.8 179L0 179L0 87Z" />
	<path id="Layer" class="shp4" d="M0 132L18.8 135.3C37.7 138.7 75.3 145.3 112.8 145.8C150.3 146.3 187.7 140.7 225.2 137.8C262.7 135 300.3 135 337.8 136C375.3 137 412.7 139 450.2 141.3C487.7 143.7 525.3 146.3 562.8 145.7C600.3 145 637.7 141 675.2 137.5C712.7 134 750.3 131 787.8 130.8C825.3 130.7 862.7 133.3 881.3 134.7L900 136L900 179L881.3 179C862.7 179 825.3 179 787.8 179C750.3 179 712.7 179 675.2 179C637.7 179 600.3 179 562.8 179C525.3 179 487.7 179 450.2 179C412.7 179 375.3 179 337.8 179C300.3 179 262.7 179 225.2 179C187.7 179 150.3 179 112.8 179C75.3 179 37.7 179 18.8 179L0 179L0 132Z" />
</svg>