<?xml version="1.0" encoding="utf-8"?>
<!-- Generator: Adobe Illustrator 25.4.1, SVG Export Plug-In . SVG Version: 6.00 Build 0)  -->
<svg version="1.1" id="Layer_1" xmlns="http://www.w3.org/2000/svg" xmlns:xlink="http://www.w3.org/1999/xlink" x="0px" y="0px"
	 viewBox="0 0 900 178" style="enable-background:new 0 0 900 178;" xml:space="preserve">
<style type="text/css">
	.st0{fill:#FFFFFF;}
	.st1{fill:#EFF0F3;}
	.st2{fill:#D5CBDE;}
	.st3{fill:#0D1117;}
</style>
<path class="st0" d="M882.6,59.5l-1.3,0c-18.6-0.5-56-1.5-93.5-1s-75.1,2.5-112.6,8.7c-37.5,6.1-74.9,16.5-112.4,15.5
	s-75.1-13.4-112.6-15.2s-74.9,6.8-112.4,12.7c-37.5,5.8-75.1,8.8-112.6,5c-37.5-3.9-74.9-14.5-112.4-13.2s-75.1,14.7-94,21.3L0,87
	V42l18.8,1.7c18.9,1.6,56.5,5,94,4.8s74.9-3.8,112.4-6.2C262.7,40,300.3,39,337.8,44s74.9,16,112.4,14.8
	c37.5-1.1,75.1-14.5,112.6-16.5s74.9,7.4,112.4,8c37.5,0.7,75.1-7.3,112.6-6.5c37.5,0.9,74.9,10.5,93.5,15.4L882.6,59.5z"/>
<path class="st1" d="M900,64v54l-18.7-1.3c-18.6-1.4-56-4-93.5-5.4c-37.5-1.3-75.1-1.3-112.6-4.1c-37.5-2.9-74.9-8.5-112.4-10.2
	s-75.1,0.7-112.6,3s-74.9,4.7-112.4,5.5s-75.1,0.2-112.6,3.2s-74.9,9.6-112.4,6.6s-75.1-15.6-94-22c18.9-6.6,56.5-20,94-21.3
	s74.9,9.3,112.4,13.2c37.5,3.8,75.1,0.8,112.6-5c37.5-5.9,74.9-14.5,112.4-12.7s75.1,14.2,112.6,15.2s74.9-9.4,112.4-15.5
	c37.5-6.2,75.1-8.2,112.6-8.7s74.9,0.5,93.5,1l1.3,0L900,64z"/>
<polygon class="st1" points="900,60 900,64 882.6,59.5 "/>
<path class="st2" d="M900,118v18l-18.7-1.3c-18.6-1.4-56-4-93.5-3.9c-37.5,0.2-75.1,3.2-112.6,6.7s-74.9,7.5-112.4,8.2
	c-37.5,0.6-75.1-2-112.6-4.4c-37.5-2.3-74.9-4.3-112.4-5.3s-75.1-1-112.6,1.8c-37.5,2.9-74.9,8.5-112.4,8s-75.1-7.1-94-10.5L0,132
	v-32l18.8-6.7c18.9,6.4,56.5,19,94,22s74.9-3.6,112.4-6.6s75.1-2.4,112.6-3.2s74.9-3.2,112.4-5.5s75.1-4.7,112.6-3
	s74.9,7.3,112.4,10.2c37.5,2.8,75.1,2.8,112.6,4.1c37.5,1.4,74.9,4,93.5,5.4L900,118z"/>
<polygon class="st2" points="18.8,93.3 0,100 0,87 "/>
<path class="st3" d="M900,136v43H0v-47l18.8,3.3c18.9,3.4,56.5,10,94,10.5s74.9-5.1,112.4-8c37.5-2.8,75.1-2.8,112.6-1.8
	s74.9,3,112.4,5.3c37.5,2.4,75.1,5,112.6,4.4c37.5-0.7,74.9-4.7,112.4-8.2s75.1-6.5,112.6-6.7c37.5-0.1,74.9,2.5,93.5,3.9L900,136z"
	/>
</svg>
