<svg xmlns="http://www.w3.org/2000/svg" xmlns:xlink="http://www.w3.org/1999/xlink" viewBox="0 0 812.06 13.17"><defs><style>.cls-1,.cls-2,.cls-3,.cls-4,.cls-5,.cls-6,.cls-7,.cls-8{fill-rule:evenodd;}.cls-1{fill:url(#linear-gradient);}.cls-2{fill:url(#linear-gradient-2);}.cls-3{fill:url(#linear-gradient-3);}.cls-4{fill:url(#linear-gradient-4);}.cls-5{fill:url(#linear-gradient-5);}.cls-6{fill:url(#linear-gradient-6);}.cls-7{fill:#d1f9ff;fill-opacity:0.25;}.cls-8{fill:url(#linear-gradient-7);}</style><linearGradient id="linear-gradient" x1="-98.78" y1="289.24" x2="-97.7" y2="288.24" gradientTransform="matrix(804.67, 0, 0, -5.67, 79471.14, 1647.01)" gradientUnits="userSpaceOnUse"><stop offset="0" stop-color="#f6f4f9"/><stop offset="1" stop-color="#cecbe4"/></linearGradient><linearGradient id="linear-gradient-2" x1="-98.76" y1="288.76" x2="-97.75" y2="288.76" gradientTransform="matrix(804.67, 0, 0, -5.67, 79471.14, 1647.01)" gradientUnits="userSpaceOnUse"><stop offset="0" stop-color="#c8bfd5"/><stop offset="0.01" stop-color="#f1f1f9" stop-opacity="0.5"/><stop offset="0.02" stop-color="#e4e4f1" stop-opacity="0.5"/><stop offset="0.03" stop-color="#dddced" stop-opacity="0.5"/><stop offset="0.18" stop-color="#f4f2f8"/><stop offset="0.95" stop-color="#cccadd" stop-opacity="0.6"/><stop offset="0.96" stop-color="#e5e4f1" stop-opacity="0.57"/><stop offset="0.98" stop-color="#fffeff" stop-opacity="0.54"/><stop offset="0.99" stop-color="#f6f5fa" stop-opacity="0.52"/><stop offset="1" stop-color="#a7a5cd" stop-opacity="0.5"/></linearGradient><linearGradient id="linear-gradient-3" y1="10.33" x2="812.06" y2="10.33" gradientUnits="userSpaceOnUse"><stop offset="0" stop-color="#666"/><stop offset="0.01" stop-color="#d5d5d5"/><stop offset="0.02" stop-color="#bdbdbd"/><stop offset="0.04" stop-color="#868686"/><stop offset="0.05" stop-color="#707070"/><stop offset="0.06" stop-color="#787878"/><stop offset="0.07" stop-color="#8e8e8e"/><stop offset="0.09" stop-color="#b2b2b2"/><stop offset="0.09" stop-color="#bcbcbc"/><stop offset="1" stop-color="#f1f1f1"/></linearGradient><linearGradient id="linear-gradient-4" x1="-98.78" y1="-72.49" x2="-97.72" y2="-73.46" gradientTransform="matrix(804.67, 0, 0, -0.67, 79470.85, -35.91)" gradientUnits="userSpaceOnUse"><stop offset="0" stop-color="#ddd8e6"/><stop offset="1" stop-color="#9992af"/></linearGradient><linearGradient id="linear-gradient-5" y1="12.83" x2="812.06" y2="12.83" gradientUnits="userSpaceOnUse"><stop offset="0.01" stop-color="#f8f8f8"/><stop offset="0.06" stop-color="#d0d0d0"/><stop offset="0.5" stop-color="#f8f8f8"/><stop offset="0.87" stop-color="#d0d0d0"/><stop offset="0.88" stop-color="#d3d3d3"/><stop offset="0.95" stop-color="#e9e9e9"/><stop offset="1" stop-color="#f1f1f1"/></linearGradient><linearGradient id="linear-gradient-6" x1="-98.73" y1="374.14" x2="-97.67" y2="373.16" gradientTransform="translate(79470.85 -2798.3) scale(804.67 7.5)" xlink:href="#linear-gradient-4"/><linearGradient id="linear-gradient-7" y1="3.75" x2="812.06" y2="3.75" gradientUnits="userSpaceOnUse"><stop offset="0" stop-color="#575757"/><stop offset="0.74" stop-color="#b9b9b9"/><stop offset="0.85" stop-color="#b6b6b6"/><stop offset="0.94" stop-color="#acacac"/><stop offset="1" stop-color="#9f9f9f"/></linearGradient></defs><g id="Layer_2" data-name="Layer 2"><g id="Layer_1-2" data-name="Layer 1"><polygon id="path-3" class="cls-1" points="0 13.17 812.06 13.17 812.06 7.5 0 7.5 0 13.17"/><polygon id="path-3-2" data-name="path-3" class="cls-2" points="0 13.17 812.06 13.17 812.06 7.5 0 7.5 0 13.17"/><polygon id="path-3-3" data-name="path-3" class="cls-3" points="0 13.17 812.06 13.17 812.06 7.5 0 7.5 0 13.17"/><polygon id="path-5" class="cls-4" points="0 13.17 812.06 13.17 812.06 12.5 0 12.5 0 13.17"/><polygon id="path-5-2" data-name="path-5" class="cls-5" points="0 13.17 812.06 13.17 812.06 12.5 0 12.5 0 13.17"/><path id="path-6" class="cls-6" d="M0,7.5C0,2.81,26.2,1,49,1Q287,0,405.69,0,525.06,0,763.11,1c22.75,0,48.95,1.81,48.95,6.5Z"/><path id="path-6-2" data-name="path-6" class="cls-7" d="M0,7.5C0,2.81,26.2,1,49,1Q287,0,405.69,0,525.06,0,763.11,1c22.75,0,48.95,1.81,48.95,6.5Z"/><path id="path-6-3" data-name="path-6" class="cls-8" d="M0,7.5C0,2.81,26.2,1,49,1Q287,0,405.69,0,525.06,0,763.11,1c22.75,0,48.95,1.81,48.95,6.5Z"/></g></g></svg>