<svg xmlns="http://www.w3.org/2000/svg" xmlns:xlink="http://www.w3.org/1999/xlink" viewBox="0 0 658.19 437.1"><defs><style>.cls-1{fill:url(#linear-gradient);}.cls-2{fill:url(#linear-gradient-2);}</style><linearGradient id="linear-gradient" x1="329.11" y1="436.04" x2="329.11" y2="2.83" gradientUnits="userSpaceOnUse"><stop offset="0" stop-color="#9a9a9a"/><stop offset="0.09" stop-color="#a2a2a2"/><stop offset="0.24" stop-color="#b8b8b8"/><stop offset="0.42" stop-color="#dbdbdb"/><stop offset="0.45" stop-color="#e2e2e2"/><stop offset="1" stop-color="#c5c5c5"/></linearGradient><linearGradient id="linear-gradient-2" x1="329.09" y1="22.61" x2="329.09" gradientUnits="userSpaceOnUse"><stop offset="0" stop-color="#404040"/><stop offset="0.28" stop-color="#434343"/><stop offset="0.45" stop-color="#4b4b4b"/><stop offset="0.59" stop-color="#595959"/><stop offset="0.71" stop-color="#6d6d6d"/><stop offset="0.82" stop-color="#888"/><stop offset="0.92" stop-color="#a7a7a7"/><stop offset="1" stop-color="#c5c5c5"/></linearGradient></defs><g id="Layer_2" data-name="Layer 2"><g id="object"><path class="cls-1" d="M638.18,2.83H20.1A19.92,19.92,0,0,0,0,22.61V436H2.91V19.78a16.81,16.81,0,0,1,.2-2.57c0-.28.09-.56.15-.83s.12-.55.19-.82.15-.54.23-.8a17,17,0,0,1,3.41-6c.18-.21.37-.41.56-.6a4,4,0,0,1,.29-.29,17.25,17.25,0,0,1,2.88-2.29c.35-.22.7-.43,1.07-.63s.73-.38,1.11-.54h0l.76-.31h0a17.39,17.39,0,0,1,6.28-1.17H638.14a17.25,17.25,0,0,1,8.16,2c.37.2.72.41,1.07.63s.91.61,1.35.94h0l.63.51h0a11.94,11.94,0,0,1,.91.83,3.83,3.83,0,0,1,.28.29,8,8,0,0,1,.56.6,16.66,16.66,0,0,1,4.18,11.06V436h2.91V21.37A19.94,19.94,0,0,0,638.18,2.83Z"/><path class="cls-2" d="M0,19.78A19.92,19.92,0,0,1,20.06,0H638.14a19.92,19.92,0,0,1,20.05,19.78v1.59a19.94,19.94,0,0,0-20-18.54H20.1A19.92,19.92,0,0,0,0,22.61Z"/><rect x="2.91" y="424.47" width="652.38" height="11.58"/><path d="M655.28,19.87v404.6H2.91V19.87a17.1,17.1,0,0,1,17.15-17H638.14A17.09,17.09,0,0,1,655.28,19.87Z"/><polygon points="658.19 436.04 658.19 437.1 655.28 437.1 655.28 437.1 2.91 437.1 2.91 437.1 0.04 437.1 0.04 436.04 658.19 436.04"/></g></g></svg>