<svg xmlns="http://www.w3.org/2000/svg" xmlns:xlink="http://www.w3.org/1999/xlink" viewBox="0 0 812.05 23.73"><defs><style>.cls-1{mask:url(#mask);filter:url(#luminosity-noclip-2);}.cls-2{mix-blend-mode:multiply;fill:url(#linear-gradient);}.cls-3{fill:url(#linear-gradient-2);}.cls-4{fill:url(#linear-gradient-3);}.cls-5{fill:url(#linear-gradient-4);}.cls-6{fill:url(#linear-gradient-5);}.cls-7{fill:url(#linear-gradient-6);}.cls-8{fill:url(#linear-gradient-7);}.cls-9{mask:url(#mask-2);}.cls-10{fill:url(#linear-gradient-8);}.cls-11{fill:url(#linear-gradient-9);}.cls-12{filter:url(#luminosity-noclip);}</style><filter id="luminosity-noclip" x="347.78" y="-7955.76" width="116.49" height="32766" filterUnits="userSpaceOnUse" color-interpolation-filters="sRGB"><feFlood flood-color="#fff" result="bg"/><feBlend in="SourceGraphic" in2="bg"/></filter><mask id="mask" x="347.78" y="-7955.76" width="116.49" height="32766" maskUnits="userSpaceOnUse"><g class="cls-12"/></mask><linearGradient id="linear-gradient" x1="347.78" y1="5.06" x2="464.27" y2="5.06" gradientUnits="userSpaceOnUse"><stop offset="0" stop-color="#ccc"/><stop offset="0.52" stop-color="#b3b3b3"/><stop offset="0.77" stop-color="#b5b5b5"/><stop offset="0.89" stop-color="#bdbdbd"/><stop offset="0.99" stop-color="#cacaca"/><stop offset="1" stop-color="#ccc"/></linearGradient><linearGradient id="linear-gradient-2" y1="6.76" x2="406.03" y2="6.76" gradientUnits="userSpaceOnUse"><stop offset="0" stop-color="#929292"/><stop offset="0.01" stop-color="#c1c1c1"/><stop offset="0.03" stop-color="#b2b2b2"/><stop offset="0.05" stop-color="#9c9c9c"/><stop offset="0.07" stop-color="#a4a4a4"/><stop offset="0.09" stop-color="#afafaf"/><stop offset="1" stop-color="#cfcfcf"/></linearGradient><linearGradient id="linear-gradient-3" y1="0.31" x2="812.05" y2="0.31" gradientUnits="userSpaceOnUse"><stop offset="0.01" stop-color="#f8f8f8"/><stop offset="0.06" stop-color="#d0d0d0"/><stop offset="0.5" stop-color="#f8f8f8"/><stop offset="0.87" stop-color="#d0d0d0"/><stop offset="0.88" stop-color="#d3d3d3"/><stop offset="0.95" stop-color="#e9e9e9"/><stop offset="1" stop-color="#f1f1f1"/></linearGradient><linearGradient id="linear-gradient-4" x1="406.03" y1="6.76" x2="812.05" y2="6.76" gradientUnits="userSpaceOnUse"><stop offset="0" stop-color="#cfcfcf"/><stop offset="0.91" stop-color="#afafaf"/><stop offset="0.93" stop-color="#a4a4a4"/><stop offset="0.95" stop-color="#9c9c9c"/><stop offset="0.97" stop-color="#b2b2b2"/><stop offset="0.99" stop-color="#c1c1c1"/><stop offset="1" stop-color="#929292"/></linearGradient><linearGradient id="linear-gradient-5" y1="6.39" x2="406.03" y2="6.39" gradientUnits="userSpaceOnUse"><stop offset="0" stop-color="#666"/><stop offset="0.01" stop-color="#d5d5d5"/><stop offset="0.02" stop-color="#bdbdbd"/><stop offset="0.04" stop-color="#868686"/><stop offset="0.05" stop-color="#707070"/><stop offset="0.06" stop-color="#787878"/><stop offset="0.07" stop-color="#8e8e8e"/><stop offset="0.09" stop-color="#b2b2b2"/><stop offset="0.09" stop-color="#bcbcbc"/><stop offset="1" stop-color="#f1f1f1"/></linearGradient><linearGradient id="linear-gradient-6" x1="406.03" y1="6.39" x2="812.05" y2="6.39" gradientUnits="userSpaceOnUse"><stop offset="0" stop-color="#f1f1f1"/><stop offset="0.91" stop-color="#bcbcbc"/><stop offset="0.91" stop-color="#b2b2b2"/><stop offset="0.93" stop-color="#8e8e8e"/><stop offset="0.94" stop-color="#787878"/><stop offset="0.95" stop-color="#707070"/><stop offset="0.96" stop-color="#868686"/><stop offset="0.98" stop-color="#bdbdbd"/><stop offset="0.99" stop-color="#d5d5d5"/><stop offset="1" stop-color="#666"/></linearGradient><linearGradient id="linear-gradient-7" x1="348.23" y1="4.71" x2="463.82" y2="4.71" gradientUnits="userSpaceOnUse"><stop offset="0" stop-color="#9f9f9f"/><stop offset="0.04" stop-color="#acacac"/><stop offset="0.51" stop-color="#e5e5e5"/><stop offset="0.96" stop-color="#acacac"/><stop offset="1" stop-color="#9f9f9f"/></linearGradient><filter id="luminosity-noclip-2" x="347.78" y="0" width="116.49" height="10.1" filterUnits="userSpaceOnUse" color-interpolation-filters="sRGB"><feFlood flood-color="#fff" result="bg"/><feBlend in="SourceGraphic" in2="bg"/></filter><mask id="mask-2" x="347.78" y="0" width="116.49" height="10.1" maskUnits="userSpaceOnUse"><g class="cls-1"><path class="cls-2" d="M463.82,0a9.38,9.38,0,0,1-2.76,6.66,9.37,9.37,0,0,1-6.65,2.75H357.64A9.4,9.4,0,0,1,348.24,0h-.46V.7a9.41,9.41,0,0,0,9.41,9.41h97.67A9.41,9.41,0,0,0,464.27.7V0Z"/></g></mask><linearGradient id="linear-gradient-8" x1="347.78" y1="5.06" x2="464.27" y2="5.06" gradientUnits="userSpaceOnUse"><stop offset="0" stop-color="#f7f7f7"/><stop offset="0.52" stop-color="#f8f8f8"/><stop offset="1" stop-color="#f7f7f7"/></linearGradient><linearGradient id="linear-gradient-9" x1="406.03" y1="23.73" x2="406.03" y2="12.9" gradientUnits="userSpaceOnUse"><stop offset="0" stop-color="#575757"/><stop offset="0.74" stop-color="#b9b9b9"/><stop offset="0.85" stop-color="#b6b6b6"/><stop offset="0.94" stop-color="#acacac"/><stop offset="1" stop-color="#9f9f9f"/></linearGradient></defs><g id="Layer_2" data-name="Layer 2"><g id="object"><rect class="cls-3" y="0.61" width="406.03" height="12.29"/><rect class="cls-4" width="812.05" height="0.61"/><rect class="cls-5" x="406.03" y="0.61" width="406.03" height="12.29"/><rect class="cls-6" y="0.61" width="406.03" height="11.56"/><rect class="cls-7" x="406.03" y="0.61" width="406.03" height="11.56"/><path class="cls-8" d="M463.82,0a9.38,9.38,0,0,1-2.76,6.66,9.37,9.37,0,0,1-6.65,2.75H357.64A9.41,9.41,0,0,1,348.23,0Z"/><g class="cls-9"><path class="cls-10" d="M463.82,0a9.38,9.38,0,0,1-2.76,6.66,9.37,9.37,0,0,1-6.65,2.75H357.64A9.4,9.4,0,0,1,348.24,0h-.46V.7a9.41,9.41,0,0,0,9.41,9.41h97.67A9.41,9.41,0,0,0,464.27.7V0Z"/></g><path class="cls-11" d="M0,12.9A362.3,362.3,0,0,0,88.19,23.73H723.86A362.24,362.24,0,0,0,812.05,12.9H0Z"/></g></g></svg>